<svg width="216" height="24" viewBox="0 0 216 24" fill="none" xmlns="http://www.w3.org/2000/svg">
<path d="M0 2.25C0 2.05109 0.0790176 1.86032 0.21967 1.71967C0.360322 1.57902 0.551088 1.5 0.75 1.5H3C3.1673 1.50005 3.32977 1.55603 3.4616 1.65904C3.59342 1.76205 3.68701 1.90618 3.7275 2.0685L4.335 4.5H21.75C21.8601 4.5001 21.9689 4.52445 22.0685 4.57133C22.1682 4.6182 22.2563 4.68644 22.3266 4.77121C22.3969 4.85597 22.4477 4.95518 22.4753 5.06178C22.5029 5.16838 22.5068 5.27976 22.4865 5.388L20.2365 17.388C20.2043 17.5599 20.1131 17.7151 19.9786 17.8268C19.8442 17.9386 19.6749 17.9998 19.5 18H6C5.82515 17.9998 5.65585 17.9386 5.52137 17.8268C5.38688 17.7151 5.29567 17.5599 5.2635 17.388L3.015 5.4105L2.415 3H0.75C0.551088 3 0.360322 2.92098 0.21967 2.78033C0.0790176 2.63968 0 2.44891 0 2.25ZM4.653 6L6.6225 16.5H18.8775L20.847 6H4.653ZM7.5 18C6.70435 18 5.94129 18.3161 5.37868 18.8787C4.81607 19.4413 4.5 20.2044 4.5 21C4.5 21.7956 4.81607 22.5587 5.37868 23.1213C5.94129 23.6839 6.70435 24 7.5 24C8.29565 24 9.05871 23.6839 9.62132 23.1213C10.1839 22.5587 10.5 21.7956 10.5 21C10.5 20.2044 10.1839 19.4413 9.62132 18.8787C9.05871 18.3161 8.29565 18 7.5 18ZM18 18C17.2043 18 16.4413 18.3161 15.8787 18.8787C15.3161 19.4413 15 20.2044 15 21C15 21.7956 15.3161 22.5587 15.8787 23.1213C16.4413 23.6839 17.2043 24 18 24C18.7956 24 19.5587 23.6839 20.1213 23.1213C20.6839 22.5587 21 21.7956 21 21C21 20.2044 20.6839 19.4413 20.1213 18.8787C19.5587 18.3161 18.7956 18 18 18ZM7.5 19.5C7.89782 19.5 8.27936 19.658 8.56066 19.9393C8.84196 20.2206 9 20.6022 9 21C9 21.3978 8.84196 21.7794 8.56066 22.0607C8.27936 22.342 7.89782 22.5 7.5 22.5C7.10217 22.5 6.72064 22.342 6.43934 22.0607C6.15804 21.7794 6 21.3978 6 21C6 20.6022 6.15804 20.2206 6.43934 19.9393C6.72064 19.658 7.10217 19.5 7.5 19.5ZM18 19.5C18.3978 19.5 18.7794 19.658 19.0607 19.9393C19.342 20.2206 19.5 20.6022 19.5 21C19.5 21.3978 19.342 21.7794 19.0607 22.0607C18.7794 22.342 18.3978 22.5 18 22.5C17.6022 22.5 17.2206 22.342 16.9393 22.0607C16.658 21.7794 16.5 21.3978 16.5 21C16.5 20.6022 16.658 20.2206 16.9393 19.9393C17.2206 19.658 17.6022 19.5 18 19.5Z" fill="#1E1E1E"/>
<path d="M84 12C85.1935 12 86.3381 11.5259 87.182 10.682C88.0259 9.83807 88.5 8.69347 88.5 7.5C88.5 6.30653 88.0259 5.16193 87.182 4.31802C86.3381 3.47411 85.1935 3 84 3C82.8065 3 81.6619 3.47411 80.818 4.31802C79.9741 5.16193 79.5 6.30653 79.5 7.5C79.5 8.69347 79.9741 9.83807 80.818 10.682C81.6619 11.5259 82.8065 12 84 12ZM87 7.5C87 8.29565 86.6839 9.05871 86.1213 9.62132C85.5587 10.1839 84.7956 10.5 84 10.5C83.2044 10.5 82.4413 10.1839 81.8787 9.62132C81.3161 9.05871 81 8.29565 81 7.5C81 6.70435 81.3161 5.94129 81.8787 5.37868C82.4413 4.81607 83.2044 4.5 84 4.5C84.7956 4.5 85.5587 4.81607 86.1213 5.37868C86.6839 5.94129 87 6.70435 87 7.5ZM93 19.5C93 21 91.5 21 91.5 21H76.5C76.5 21 75 21 75 19.5C75 18 76.5 13.5 84 13.5C91.5 13.5 93 18 93 19.5ZM91.5 19.494C91.4985 19.125 91.269 18.015 90.252 16.998C89.274 16.02 87.4335 15 84 15C80.565 15 78.726 16.02 77.748 16.998C76.731 18.015 76.503 19.125 76.5 19.494H91.5Z" fill="#1E1E1E"/>
<line x1="143.5" y1="24" x2="143.5" y2="2.18557e-08" stroke="#1E1E1E"/>
<path d="M215.6 16.75C215.6 16.5511 215.505 16.3603 215.336 16.2197C215.168 16.079 214.939 16 214.7 16H209.3C209.061 16 208.832 16.079 208.664 16.2197C208.495 16.3603 208.4 16.5511 208.4 16.75C208.4 16.9489 208.495 17.1397 208.664 17.2803C208.832 17.421 209.061 17.5 209.3 17.5H214.7C214.939 17.5 215.168 17.421 215.336 17.2803C215.505 17.1397 215.6 16.9489 215.6 16.75ZM215.6 12.25C215.6 12.0511 215.505 11.8603 215.336 11.7197C215.168 11.579 214.939 11.5 214.7 11.5H202.1C201.861 11.5 201.632 11.579 201.464 11.7197C201.295 11.8603 201.2 12.0511 201.2 12.25C201.2 12.4489 201.295 12.6397 201.464 12.7803C201.632 12.921 201.861 13 202.1 13H214.7C214.939 13 215.168 12.921 215.336 12.7803C215.505 12.6397 215.6 12.4489 215.6 12.25ZM215.6 7.75C215.6 7.55109 215.505 7.36032 215.336 7.21967C215.168 7.07902 214.939 7 214.7 7H194.9C194.661 7 194.432 7.07902 194.264 7.21967C194.095 7.36032 194 7.55109 194 7.75C194 7.94891 194.095 8.13968 194.264 8.28033C194.432 8.42098 194.661 8.5 194.9 8.5H214.7C214.939 8.5 215.168 8.42098 215.336 8.28033C215.505 8.13968 215.6 7.94891 215.6 7.75Z" fill="#1E1E1E"/>
</svg>
